<svg width="12" height="12" viewBox="0 0 12 12" fill="none" xmlns="http://www.w3.org/2000/svg">
<path d="M3.31 6.53991C3.24795 6.56237 3.1916 6.5982 3.14494 6.64486C3.09828 6.69152 3.06246 6.74787 3.04 6.80991C3.00363 6.90078 2.99473 7.00032 3.01439 7.09619C3.03406 7.19207 3.08143 7.28007 3.15064 7.34927C3.21985 7.41848 3.30784 7.46585 3.40372 7.48552C3.4996 7.50519 3.59914 7.49628 3.69 7.45991C3.75059 7.43459 3.8064 7.39908 3.855 7.35491C3.89917 7.30631 3.93468 7.25051 3.96 7.18991C3.98799 7.13057 4.00169 7.0655 4 6.99991C3.99816 6.86753 3.94637 6.74073 3.855 6.64491C3.78469 6.57553 3.6954 6.52854 3.59841 6.50985C3.50141 6.49116 3.40106 6.50162 3.31 6.53991ZM9.88 4.53991L9.2 2.52491C9.09628 2.23153 8.90387 1.97767 8.64945 1.79849C8.39503 1.61932 8.09118 1.52371 7.78 1.52491H4.22C3.90882 1.52371 3.60497 1.61932 3.35055 1.79849C3.09613 1.97767 2.90372 2.23153 2.8 2.52491L2.12 4.55491C1.80016 4.63867 1.51696 4.82575 1.31441 5.08706C1.11187 5.34838 1.00134 5.66929 1 5.99991V7.99991C1.00087 8.30939 1.09744 8.61101 1.27647 8.86345C1.4555 9.11588 1.70823 9.30676 2 9.40991V9.99991C2 10.1325 2.05268 10.2597 2.14645 10.3535C2.24021 10.4472 2.36739 10.4999 2.5 10.4999C2.63261 10.4999 2.75979 10.4472 2.85355 10.3535C2.94732 10.2597 3 10.1325 3 9.99991V9.49991H9V9.99991C9 10.1325 9.05268 10.2597 9.14645 10.3535C9.24021 10.4472 9.36739 10.4999 9.5 10.4999C9.63261 10.4999 9.75979 10.4472 9.85355 10.3535C9.94732 10.2597 10 10.1325 10 9.99991V9.40991C10.2918 9.30676 10.5445 9.11588 10.7235 8.86345C10.9026 8.61101 10.9991 8.30939 11 7.99991V5.99991C10.9987 5.66929 10.8881 5.34838 10.6856 5.08706C10.483 4.82575 10.1998 4.63867 9.88 4.55491V4.53991ZM3.745 2.83991C3.77854 2.7406 3.84245 2.65435 3.92769 2.59333C4.01292 2.53232 4.11518 2.49964 4.22 2.49991H7.78C7.88903 2.49422 7.99693 2.52438 8.08722 2.58577C8.1775 2.64716 8.24521 2.73642 8.28 2.83991L8.805 4.49991H3.195L3.745 2.83991ZM10 7.99991C10 8.13252 9.94732 8.2597 9.85355 8.35347C9.75979 8.44724 9.63261 8.49991 9.5 8.49991H2.5C2.36739 8.49991 2.24021 8.44724 2.14645 8.35347C2.05268 8.2597 2 8.13252 2 7.99991V5.99991C2 5.86731 2.05268 5.74013 2.14645 5.64636C2.24021 5.55259 2.36739 5.49991 2.5 5.49991H9.5C9.63261 5.49991 9.75979 5.55259 9.85355 5.64636C9.94732 5.74013 10 5.86731 10 5.99991V7.99991ZM8.31 6.53991C8.24795 6.56237 8.1916 6.5982 8.14494 6.64486C8.09828 6.69152 8.06246 6.74787 8.04 6.80991C8.00363 6.90078 7.99473 7.00032 8.01439 7.09619C8.03406 7.19207 8.08143 7.28007 8.15064 7.34927C8.21985 7.41848 8.30784 7.46585 8.40372 7.48552C8.4996 7.50519 8.59914 7.49628 8.69 7.45991C8.75205 7.43746 8.8084 7.40163 8.85506 7.35497C8.90172 7.30831 8.93754 7.25196 8.96 7.18991C8.98799 7.13057 9.00169 7.0655 9 6.99991C8.99816 6.86753 8.94637 6.74073 8.855 6.64491C8.78469 6.57553 8.6954 6.52854 8.59841 6.50985C8.50141 6.49116 8.40106 6.50162 8.31 6.53991ZM6.5 6.49991H5.5C5.36739 6.49991 5.24021 6.55259 5.14645 6.64636C5.05268 6.74013 5 6.86731 5 6.99991C5 7.13252 5.05268 7.2597 5.14645 7.35347C5.24021 7.44724 5.36739 7.49991 5.5 7.49991H6.5C6.63261 7.49991 6.75979 7.44724 6.85355 7.35347C6.94732 7.2597 7 7.13252 7 6.99991C7 6.86731 6.94732 6.74013 6.85355 6.64636C6.75979 6.55259 6.63261 6.49991 6.5 6.49991Z" fill="#FF9600"/>
</svg>
