<svg width="28" height="28" viewBox="0 0 28 28" fill="none" xmlns="http://www.w3.org/2000/svg">
<circle cx="14" cy="14" r="14" fill="black"/>
<path d="M15.5923 6.0125L15.585 9.54821L15.5776 13.0839L15.2401 12.2631V12.261L14.8024 20.1322C15.2328 21.176 15.4627 21.7338 15.4651 21.7359C15.4676 21.738 15.7122 21.7506 16.0081 21.7632C16.9032 21.8011 18.0135 21.8832 18.8573 21.9737C19.0529 21.9947 19.2192 22.0052 19.2315 21.9968C19.2437 21.9884 19.2461 18.3896 19.2437 13.9973L19.2364 6.0125H15.5923Z" fill="url(#paint0_linear)"/>
<path d="M9 6.0021V13.9953C9 18.3918 9.00489 21.9928 9.01223 21.9991C9.01957 22.0054 9.33506 21.978 9.71658 21.9423C10.0981 21.9065 10.6239 21.8602 10.8856 21.8412C11.2867 21.8118 12.49 21.7465 12.6269 21.7444C12.6685 21.7444 12.671 21.5655 12.6758 18.3582L12.6832 14.9719L12.9742 15.679C13.0182 15.7884 13.0329 15.8221 13.0769 15.9295L13.5147 8.06039C13.4218 7.8352 13.4707 7.95306 13.3655 7.6963C13.0085 6.8271 12.7052 6.0926 12.693 6.05893L12.6685 6H9V6.0021Z" fill="url(#paint1_linear)"/>
<path d="M9 6.0021L12.6808 14.9781V14.9739L12.9718 15.6811C14.5884 19.6187 15.4566 21.7317 15.4615 21.7359C15.464 21.738 15.7085 21.7507 16.0044 21.7633C16.8996 21.8012 18.0099 21.8832 18.8537 21.9737C19.0469 21.9948 19.2156 22.0053 19.2254 21.9969L15.5765 13.0819V13.084L15.2389 12.2632C14.9088 11.4614 14.6887 10.9247 13.3607 7.69629C13.0036 6.8271 12.7003 6.0926 12.6881 6.05893L12.6636 6H10.8318L9 6.0021Z" fill="#E30A17"/>
<defs>
<linearGradient id="paint0_linear" x1="20.8873" y1="17.9661" x2="15.0548" y2="20.5275" gradientUnits="userSpaceOnUse">
<stop stop-color="#B20610"/>
<stop offset="0.255959" stop-color="#B20610"/>
<stop offset="1" stop-color="#590004"/>
</linearGradient>
<linearGradient id="paint1_linear" x1="7.23134" y1="9.50705" x2="13.5389" y2="6.76897" gradientUnits="userSpaceOnUse">
<stop stop-color="#B20610"/>
<stop offset="0.255959" stop-color="#B20610"/>
<stop offset="1" stop-color="#590004"/>
</linearGradient>
</defs>
</svg>
