<svg width="28" height="28" viewBox="0 0 28 28" fill="none" xmlns="http://www.w3.org/2000/svg">
<circle cx="14" cy="14" r="14" fill="#F5F5F5"/>
<path d="M17.5 14.5C17.7761 14.5 18 14.2761 18 14C18 13.7239 17.7761 13.5 17.5 13.5C17.2239 13.5 17 13.7239 17 14C17 14.2761 17.2239 14.5 17.5 14.5Z" stroke="black" stroke-linecap="round" stroke-linejoin="round"/>
<path d="M14 14.5C14.2761 14.5 14.5 14.2761 14.5 14C14.5 13.7239 14.2761 13.5 14 13.5C13.7239 13.5 13.5 13.7239 13.5 14C13.5 14.2761 13.7239 14.5 14 14.5Z" stroke="black" stroke-linecap="round" stroke-linejoin="round"/>
<path d="M10.5 14.5C10.7761 14.5 11 14.2761 11 14C11 13.7239 10.7761 13.5 10.5 13.5C10.2239 13.5 10 13.7239 10 14C10 14.2761 10.2239 14.5 10.5 14.5Z" stroke="black" stroke-linecap="round" stroke-linejoin="round"/>
</svg>
