<svg width="12" height="11" viewBox="0 0 12 11" fill="none" xmlns="http://www.w3.org/2000/svg">
<path d="M8.42146 5.81484C8.62173 5.81732 8.82048 5.77966 9.00597 5.70409C9.19146 5.62852 9.35993 5.51657 9.50146 5.37484L10.9165 3.95984C11.0096 3.86616 11.0619 3.73943 11.0619 3.60734C11.0619 3.47525 11.0096 3.34852 10.9165 3.25484C10.87 3.20798 10.8147 3.17078 10.7537 3.1454C10.6928 3.12001 10.6275 3.10694 10.5615 3.10694C10.4955 3.10694 10.4301 3.12001 10.3692 3.1454C10.3082 3.17078 10.2529 3.20798 10.2065 3.25484L8.77646 4.66484C8.72998 4.71171 8.67468 4.7489 8.61375 4.77429C8.55282 4.79967 8.48746 4.81274 8.42146 4.81274C8.35545 4.81274 8.2901 4.79967 8.22917 4.77429C8.16824 4.7489 8.11294 4.71171 8.06646 4.66484L9.83646 2.89984C9.88308 2.85322 9.92006 2.79788 9.94529 2.73697C9.97052 2.67606 9.9835 2.61077 9.9835 2.54484C9.9835 2.47891 9.97052 2.41363 9.94529 2.35272C9.92006 2.29181 9.88308 2.23646 9.83646 2.18984C9.78984 2.14322 9.73449 2.10624 9.67358 2.08101C9.61267 2.05578 9.54739 2.0428 9.48146 2.0428C9.41553 2.0428 9.35024 2.05578 9.28933 2.08101C9.22842 2.10624 9.17308 2.14322 9.12646 2.18984L7.36146 3.95984C7.26833 3.86616 7.21606 3.73943 7.21606 3.60734C7.21606 3.47525 7.26833 3.34852 7.36146 3.25484L8.77646 1.83984C8.82308 1.79322 8.86006 1.73788 8.88529 1.67697C8.91052 1.61606 8.9235 1.55077 8.9235 1.48484C8.9235 1.41891 8.91052 1.35363 8.88529 1.29272C8.86006 1.23181 8.82308 1.17646 8.77646 1.12984C8.72984 1.08322 8.67449 1.04624 8.61358 1.02101C8.55267 0.995782 8.48739 0.982796 8.42146 0.982796C8.35553 0.982796 8.29024 0.995782 8.22933 1.02101C8.16842 1.04624 8.11308 1.08322 8.06646 1.12984L6.65146 2.54484C6.37056 2.82609 6.21278 3.20734 6.21278 3.60484C6.21278 4.00234 6.37056 4.38359 6.65146 4.66484L6.00146 5.30984L1.86646 1.15984L1.81646 1.12984C1.7909 1.10754 1.76227 1.08902 1.73146 1.07484L1.64146 1.03984L1.58146 0.999842H1.54646H1.44646C1.41665 0.995075 1.38627 0.995075 1.35646 0.999842C1.32619 1.01086 1.29759 1.026 1.27146 1.04484L1.19146 1.09484H1.15646L1.12646 1.14484C1.1053 1.17124 1.08687 1.19972 1.07146 1.22984C1.05682 1.26033 1.0451 1.29214 1.03646 1.32484C1.03646 1.32484 1.03646 1.35984 1.03646 1.37984C0.915126 2.22555 0.992484 3.08789 1.2624 3.8985C1.53231 4.70911 1.98736 5.44569 2.59146 6.04984L3.91146 7.36484L1.20646 10.0648C1.15959 10.1113 1.1224 10.1666 1.09701 10.2276C1.07163 10.2885 1.05856 10.3538 1.05856 10.4198C1.05856 10.4858 1.07163 10.5512 1.09701 10.6121C1.1224 10.6731 1.15959 10.7284 1.20646 10.7748C1.25318 10.8212 1.30859 10.8578 1.36951 10.8827C1.43042 10.9076 1.49566 10.9202 1.56146 10.9198C1.62726 10.9202 1.69249 10.9076 1.75341 10.8827C1.81433 10.8578 1.86974 10.8212 1.91646 10.7748L4.95146 7.78484L6.36646 6.36984L7.36646 5.36984C7.64545 5.65184 8.02478 5.81184 8.42146 5.81484ZM4.59646 6.72484L3.28146 5.40484C2.56069 4.67421 2.10938 3.72047 2.00146 2.69984L5.30646 5.99984L4.59646 6.72484ZM7.71646 7.00984C7.62231 6.91503 7.49435 6.8615 7.36073 6.86103C7.22711 6.86056 7.09877 6.91319 7.00396 7.00734C6.90914 7.10149 6.85561 7.22945 6.85514 7.36307C6.85468 7.49669 6.90731 7.62503 7.00146 7.71984L10.1515 10.8698C10.247 10.9567 10.3724 11.0033 10.5015 10.9998C10.5673 11.0002 10.6325 10.9876 10.6934 10.9627C10.7543 10.9378 10.8097 10.9012 10.8565 10.8548C10.9033 10.8084 10.9405 10.7531 10.9659 10.6921C10.9913 10.6312 11.0044 10.5658 11.0044 10.4998C11.0044 10.4338 10.9913 10.3685 10.9659 10.3076C10.9405 10.2466 10.9033 10.1913 10.8565 10.1448L7.71646 7.00984Z" fill="#EA4FD8"/>
</svg>
