<svg width="26" height="26" viewBox="0 0 26 26" fill="none" xmlns="http://www.w3.org/2000/svg">
<path fill-rule="evenodd" clip-rule="evenodd" d="M5.52217 20.3914C6.40427 21.2732 7.42989 21.9985 8.55518 22.5365L5.52217 15.5829L2.99467 9.78817C2.66178 10.7992 2.48917 11.8842 2.48917 13.0061C2.48917 15.8788 3.64812 18.4927 5.52217 20.3914ZM20.4898 23.0791C23.5598 20.7982 25.5571 17.1363 25.5571 13.0061C25.5571 8.8758 23.5598 5.214 20.4898 2.92075C18.3938 1.36726 15.8048 0.442566 13.0061 0.442566C10.2073 0.442566 7.61815 1.36726 5.52217 2.92075C2.45218 5.214 0.454834 8.8758 0.454834 13.0061C0.454834 17.1363 2.45218 20.7982 5.52217 23.0791C7.61815 24.6325 10.2073 25.5573 13.0061 25.5573C15.8048 25.5573 18.3938 24.6326 20.4898 23.0791ZM20.4898 5.62087C20.8635 5.99491 21.2058 6.39903 21.5133 6.82914L20.4898 9.19637L16.6309 18.0611L14.6335 13.5116H11.3786L9.38124 18.0611L5.52217 9.19637L4.49884 6.82914C4.80622 6.39899 5.14849 5.99487 5.52217 5.62087C6.16244 4.96716 6.88824 4.40312 7.6798 3.94409L11.3293 12.439H14.6827L18.3321 3.94409C19.1237 4.40312 19.8495 4.96716 20.4898 5.62087ZM20.4898 15.5829L23.0173 9.78817C23.3503 10.7992 23.5229 11.8842 23.5229 13.0061C23.5229 15.8787 22.364 18.4927 20.4898 20.3914C19.6077 21.2732 18.5822 21.9985 17.4569 22.5365L20.4898 15.5829ZM13.0061 16.3967L15.9406 23.0915C14.9874 23.3704 13.9992 23.5115 13.0061 23.5107C12.013 23.5115 11.0248 23.3703 10.0717 23.0915L13.0061 16.3967ZM13.0061 9.81283L16.0269 2.93308C15.0774 2.63718 14.054 2.48923 13.0061 2.48923C11.9581 2.48923 10.9471 2.63718 9.98538 2.93308L13.0061 9.81283Z" fill="white"/>
</svg>
